<?xml version="1.0" encoding="UTF-8"?> <svg xmlns="http://www.w3.org/2000/svg" width="500" height="500" viewBox="0 0 500 500"><g fill="none" fill-rule="evenodd"><rect width="500" height="500" fill="#336791"></rect><g fill-rule="nonzero" transform="translate(81 75)"><path fill="#336791" d="M338.6825,209.583712 C336.643828,203.420265 331.303438,199.127462 324.397188,198.097348 C321.140625,197.612121 317.41125,197.818939 312.997891,198.727083 C305.305391,200.311364 299.598438,200.914583 295.433438,201.03125 C311.154453,174.535985 323.937656,144.32197 331.296797,115.880492 C343.196797,69.8912879 336.837734,48.9403409 329.406875,39.4638258 C309.741328,14.3804924 281.049844,0.905492424 246.43625,0.493181818 C227.971328,0.26780303 211.761562,3.90700758 203.305391,6.52405303 C195.432266,5.13731061 186.966797,4.36306818 178.084297,4.21988636 C161.433594,3.95473485 146.721953,7.5780303 134.15125,15.0248106 C127.191875,12.6755682 116.022344,9.36382576 103.123594,7.25056818 C72.7865625,2.27897727 48.3357812,6.15284091 30.45125,18.7647727 C8.79484375,34.0348485 -1.24445313,60.5659091 0.612265625,97.6208333 C1.20195312,109.385606 7.79476563,145.181061 18.1753906,179.128409 C24.1413281,198.640909 30.5030469,214.844318 37.0839063,227.293182 C46.4166406,244.945644 56.4028125,255.340909 67.6135156,259.074242 C73.896875,261.163636 85.3134375,262.627273 97.3210156,252.644318 C98.8430469,254.48447 100.87375,256.312689 103.568516,258.010985 C106.991094,260.165341 111.176016,261.925947 115.355625,262.969318 C130.417891,266.727841 144.526563,265.787879 156.563359,260.519318 C156.637734,262.656439 156.694844,264.698106 156.742656,266.461364 C156.822344,269.321023 156.902031,272.125 157.006953,274.747348 C157.720156,292.47803 158.92875,306.264583 162.509375,315.910795 C162.705937,316.441098 162.970234,317.249811 163.249141,318.107576 C165.035469,323.567045 168.022422,332.706818 175.621953,339.864583 C183.491094,347.279545 193.009766,349.55322 201.727578,349.55322 C206.099766,349.55322 210.271406,348.980492 213.930391,348.198295 C226.972578,345.407576 241.785156,341.157197 252.500469,325.926894 C262.631406,311.529167 267.556094,289.84375 268.447266,255.675 C268.562813,254.708523 268.669063,253.785795 268.771328,252.906818 L268.983828,251.101136 L271.370469,251.310606 L271.985391,251.351705 C285.269297,251.95625 301.512266,249.144318 311.487812,244.51875 C319.370234,240.867614 344.629844,227.555682 338.6825,209.583712"></path><path fill="#336791" d="M315.968906,213.078409 C276.470469,221.211932 273.754453,207.862879 273.754453,207.862879 C315.457578,146.091856 332.891875,67.6825758 317.848203,48.4922348 C276.803828,-3.85530303 205.755781,20.9018939 204.569766,21.5435606 L204.188594,21.6125 C196.384531,19.9950758 187.652109,19.0325758 177.835938,18.8721591 C159.964688,18.5804924 146.407188,23.5494318 136.119531,31.3369318 C136.119531,31.3369318 9.3765625,-20.7839015 15.2721094,96.8876894 C16.5258594,121.920644 51.2164844,286.302652 92.5928906,236.651705 C107.71625,218.495455 122.329609,203.144508 122.329609,203.144508 C129.586484,207.957008 138.275078,210.412311 147.383359,209.530682 L148.09125,208.931439 C147.870781,211.185227 147.971719,213.389962 148.374141,216.000379 C137.714609,227.888447 140.847656,229.975189 119.539219,234.354167 C97.9771094,238.790152 110.643438,246.686364 118.913672,248.751894 C128.939688,251.253598 152.134063,254.798674 167.805938,232.898485 L167.181719,235.397538 C171.357344,238.737121 174.289844,257.117424 173.798438,273.780871 C173.307031,290.442992 172.978984,301.882955 176.26875,310.818561 C179.561172,319.754167 182.840313,339.85928 210.853125,333.868182 C234.258672,328.860795 246.388438,315.885606 248.076484,294.241288 C249.273125,278.854545 251.983828,281.129545 252.153828,267.372159 L254.327969,260.860038 C256.834141,240.001894 254.726406,233.272348 269.145859,236.402462 L272.652109,236.710038 C283.263828,237.191288 297.156016,235.005114 305.309375,231.222727 C322.864531,223.09053 333.277031,209.510795 315.96625,213.078409 L315.968906,213.078409"></path><path fill="#FFF" d="M143.538438,108.082386 C139.979063,107.587879 136.755703,108.045265 135.124766,109.27822 C134.208359,109.971591 133.924141,110.775 133.847109,111.327841 C133.642578,112.792803 134.670547,114.412879 135.302734,115.248106 C137.090391,117.613258 139.701484,119.238636 142.286016,119.596591 C142.660547,119.649621 143.03375,119.673485 143.404297,119.673485 C147.714063,119.673485 151.633359,116.323295 151.978672,113.850758 C152.410313,110.753788 147.906641,108.689583 143.538438,108.083712 M261.454688,108.180492 C261.114688,105.75303 256.787656,105.060985 252.681094,105.631061 C248.579844,106.201136 244.603437,108.049242 244.935469,110.482008 C245.201094,112.373864 248.623672,115.603409 252.674453,115.603409 C253.017109,115.603409 253.362422,115.580871 253.710391,115.531818 C256.414453,115.157955 258.398672,113.44375 259.341641,112.456061 C260.776016,110.95 261.607422,109.271591 261.454688,108.180492"></path><path fill="#FFF" d="M329.112031,212.154356 C327.605938,207.608333 322.758281,206.146023 314.704531,207.805871 C290.791641,212.732386 282.227891,209.319886 279.41625,207.25303 C298.003359,178.987879 313.294063,144.820455 321.543047,112.942614 C325.450391,97.8422348 327.608594,83.8183712 327.785234,72.3876894 C327.980469,59.8420455 325.839531,50.6227273 321.424844,44.9909091 C303.625313,22.2873106 277.501094,10.1089015 245.878438,9.77481061 C224.138359,9.53087121 205.770391,15.0844697 202.209688,16.6462121 C194.711094,14.7848485 186.536484,13.6420455 177.636719,13.4962121 C161.316719,13.2323864 147.209375,17.1327652 135.529844,25.0833333 C130.456406,23.1981061 117.345156,18.7051136 101.310703,16.1265152 C73.5900781,11.6719697 51.5617969,15.0473485 35.8421094,26.1638258 C17.085,39.4293561 8.425625,63.1418561 10.1030469,96.6410985 C10.6675,107.911364 17.1009375,142.582576 27.253125,175.786174 C40.6167187,219.488447 55.14375,244.228409 70.4278125,249.317992 C72.2167969,249.913258 74.279375,250.329545 76.5544531,250.329545 C82.1299219,250.329545 88.9657812,247.821212 96.0778906,239.285985 C104.752623,228.898081 113.726077,218.762417 122.987031,208.891667 C128.995469,212.110606 135.59625,213.908333 142.347109,214.088636 C142.360391,214.264962 142.377656,214.441288 142.393594,214.616288 C141.231518,215.99956 140.093586,217.402864 138.980313,218.825568 C134.302656,224.75303 133.329141,225.987311 118.272188,229.081629 C113.988984,229.964583 102.613594,232.304545 102.44625,240.264394 C102.265625,248.961364 115.893516,252.613826 117.446094,253.000947 C122.856875,254.35322 128.069766,255.020076 133.040938,255.020076 C145.130859,255.020076 155.770469,251.053409 164.273125,243.378598 C164.011484,274.382765 165.306406,304.933523 169.035781,314.241667 C172.090469,321.862121 179.551875,340.485038 203.120781,340.483712 C206.579219,340.483712 210.385625,340.082008 214.573203,339.185795 C239.171406,333.922538 249.853516,323.069886 253.985313,299.143939 C256.196641,286.357008 259.991094,255.823485 261.776094,239.445076 C265.542656,240.618371 270.391641,241.155303 275.63375,241.153977 C286.566875,241.153977 299.182734,238.835227 307.094375,235.169508 C315.982188,231.049053 332.020625,220.938826 329.112031,212.154356 L329.112031,212.154356 Z M270.53375,101.480114 C270.452734,106.315152 269.786016,110.704735 269.079453,115.286553 C268.318438,120.214394 267.532188,125.30928 267.334297,131.493939 C267.139063,137.512879 267.892109,143.770455 268.619922,149.822538 C270.091484,162.046023 271.601563,174.630114 265.756484,187.047159 C264.785544,185.329823 263.920651,183.554861 263.166641,181.732197 C262.440156,179.974242 260.862344,177.150379 258.677578,173.242045 C250.178906,158.027652 230.276953,122.399242 240.465,107.860985 C243.499766,103.533712 251.201563,99.0844697 270.53375,101.480114 L270.53375,101.480114 Z M247.100312,19.5655303 C275.434531,20.1899621 297.847969,30.7708333 313.716406,51.0125 C325.887344,66.538447 312.485234,137.184091 273.686719,198.130492 C273.296538,197.635242 272.904295,197.141614 272.51,196.649621 L272.018594,196.037121 C282.044609,179.508902 280.084297,163.155682 278.339141,148.657197 C277.621953,142.707197 276.944609,137.087311 277.117266,131.808144 C277.295234,126.213447 278.036328,121.414205 278.753516,116.774053 C279.634062,111.056061 280.530547,105.139205 280.283516,98.1643939 C280.468125,97.4325758 280.5425,96.5681818 280.445547,95.5420455 C279.814687,88.8535985 272.164687,68.8359848 256.5725,50.7181818 C248.043281,40.8081439 235.605391,29.7181818 218.622656,22.2382576 C225.927344,20.7268939 235.916172,19.3176136 247.100312,19.5655303 L247.100312,19.5655303 Z M88.5514063,233.039015 C80.7154688,242.443939 75.3046875,240.640909 73.525,240.049621 C61.9304688,236.189015 48.4765625,211.726136 36.6150781,172.93447 C26.3513281,139.368939 20.3535156,105.616477 19.8780469,96.1518939 C18.3799219,66.2189394 25.64875,45.3581439 41.4839844,34.1475379 C67.2549219,15.9051136 109.624766,26.824053 126.65,32.3617424 C126.405625,32.6030303 126.150625,32.8284091 125.908906,33.0736742 C97.9704688,61.2380682 98.6332031,109.357765 98.7022656,112.299621 C98.6996094,113.43447 98.7952344,115.041288 98.9253906,117.251326 C99.4061719,125.345076 100.301328,140.408333 97.9107031,157.466856 C95.6900781,173.318939 100.585547,188.83428 111.339375,200.035606 C112.443023,201.182969 113.603016,202.274967 114.815078,203.307576 C110.028516,208.425 99.6253125,219.741667 88.5514063,233.039015 Z M118.406328,193.275568 C109.738984,184.247159 105.802422,171.689583 107.604687,158.819129 C110.128125,140.799432 109.197109,125.105114 108.696406,116.673295 C108.626016,115.493371 108.563594,114.45928 108.527734,113.643939 C112.609062,110.03125 131.522891,99.9157197 145.011328,103.000758 C151.165859,104.407386 154.916484,108.591477 156.475703,115.787689 C164.545391,153.045455 157.543516,168.574053 151.917578,181.053409 C150.758125,183.624053 149.662422,186.054167 148.727422,188.567803 L148.002266,190.511364 C146.166797,195.424621 144.458828,199.993182 143.400313,204.331061 C134.185781,204.304545 125.222266,200.375 118.406328,193.274242 L118.406328,193.275568 Z M119.820781,243.52178 C117.13,242.850947 114.710156,241.685606 113.290391,240.719129 C114.476406,240.162311 116.586797,239.403977 120.247109,238.650947 C137.960313,235.011742 140.69625,232.442424 146.670156,224.871023 C148.039453,223.13428 149.592031,221.166856 151.742266,218.769886 L151.744922,218.767235 C154.947031,215.187689 156.411953,215.794886 159.068203,216.895265 C161.221094,217.783523 163.318203,220.477462 164.168203,223.441856 C164.570625,224.841856 165.022188,227.498674 163.543984,229.566856 C151.064922,247.008523 132.880234,246.78447 119.820781,243.52178 L119.820781,243.52178 Z M212.522578,329.632386 C190.852891,334.267235 183.180313,323.230303 178.124141,310.613068 C174.860938,302.467614 173.256563,265.736174 174.394766,225.17197 C174.409375,224.632386 174.332344,224.111364 174.183594,223.620833 C174.050534,222.652196 173.848141,221.694315 173.577969,220.754545 C171.885938,214.852273 167.762109,209.915152 162.814844,207.868182 C160.849219,207.055492 157.242031,205.564015 152.907031,206.671023 C153.831406,202.86875 155.434453,198.574621 157.172969,193.925189 L157.902109,191.969697 C158.722891,189.764962 159.753516,187.480682 160.842578,185.0625 C166.730156,172.006439 174.793203,154.123295 166.042188,113.723485 C162.764375,98.5912879 151.817969,91.2015152 135.224375,92.9183712 C125.276719,93.9458333 116.175078,97.9522727 111.635547,100.249811 C110.659375,100.742992 109.766875,101.220265 108.932812,101.68428 C110.199844,86.4380682 114.986406,57.9448864 132.892188,39.9172348 C144.166641,28.56875 159.181094,22.963447 177.474688,23.2657197 C213.52,23.8543561 236.634688,42.3195076 249.679531,57.7075758 C260.920781,70.9664773 267.007578,84.3234848 269.436719,91.5276515 C251.168359,89.6729167 238.74375,93.2723485 232.445781,102.260985 C218.743516,121.813258 239.941719,159.761742 250.129766,178.000189 C251.998438,181.342424 253.610781,184.23125 254.118125,185.458902 C257.435781,193.485038 261.730938,198.84375 264.866641,202.754735 C265.828203,203.95322 266.760547,205.115909 267.469766,206.131439 C261.936797,207.723674 251.998438,211.402652 252.904219,229.792235 C252.17375,239.019508 246.979453,282.220644 244.340469,297.484091 C240.856797,317.648864 233.423281,325.15928 212.522578,329.633712 L212.522578,329.632386 Z M302.973203,226.308144 C297.315391,228.929167 287.847188,230.895265 278.853125,231.318182 C268.91875,231.782197 263.86125,230.207197 262.67125,229.238068 C262.113438,217.77822 266.386016,216.581061 270.908281,215.313636 C271.618828,215.114773 272.312109,214.919886 272.981484,214.686553 C273.397188,215.024621 273.852734,215.360038 274.352109,215.688826 C282.336797,220.949432 296.578281,221.516856 316.684766,217.373864 L316.905234,217.330114 C314.193203,219.860985 309.552734,223.257576 302.973203,226.308144 Z"></path></g></g></svg> 